<svg xmlns="http://www.w3.org/2000/svg" width="48" height="48" viewBox="0 0 48 48" fill="none">
  <path d="M15.5782 10.807C16.659 10.7869 17.7383 10.8977 18.7925 11.137C19.6801 11.3308 20.5228 11.6914 21.2758 12.1996C21.9712 12.705 22.5215 13.3845 22.8714 14.1698C23.2734 15.1354 23.4674 16.175 23.4406 17.2207C23.4863 18.3688 23.193 19.505 22.5975 20.4877C21.9709 21.4158 21.1048 22.157 20.0911 22.6327C21.4668 23.0036 22.665 23.8532 23.4703 25.0286C24.2434 26.274 24.632 27.7198 24.5874 29.185C24.6129 30.3532 24.3713 31.5118 23.8812 32.5725C23.4281 33.4978 22.7647 34.3042 21.944 34.9271C21.0992 35.5432 20.1484 35.999 19.139 36.2719C18.0922 36.5614 17.0108 36.7069 15.9247 36.7042H4V10.807H15.5782ZM14.8902 21.2814C15.7394 21.3164 16.5753 21.0622 17.2613 20.5603C17.5898 20.2679 17.8453 19.9026 18.0075 19.4938C18.1696 19.0849 18.2339 18.6438 18.1952 18.2057C18.2172 17.694 18.1153 17.1846 17.8982 16.7207C17.714 16.3514 17.4277 16.0427 17.0732 15.8313C16.7141 15.5987 16.3107 15.4431 15.8884 15.3743C15.4303 15.2855 14.9641 15.2451 14.4975 15.2538H9.40219V21.3045H14.8902V21.2814ZM15.1872 32.3068C15.7007 32.3138 16.2132 32.2584 16.7135 32.1418C17.1706 32.0409 17.6041 31.8533 17.9906 31.5891C18.3692 31.3251 18.6751 30.9698 18.8799 30.5562C19.1175 30.0288 19.2266 29.4525 19.1984 28.8748C19.2499 28.3483 19.1802 27.817 18.9945 27.3216C18.8089 26.8262 18.5123 26.38 18.1275 26.0169C17.3119 25.4162 16.3124 25.1186 15.301 25.1754H9.40219V32.3068H15.1872Z" fill="#FDFDFD"/>
  <path d="M32.2815 32.2113C32.7055 32.6043 33.205 32.907 33.7496 33.101C34.2942 33.295 34.8725 33.3763 35.4495 33.3399C36.3642 33.363 37.2612 33.0847 38.0021 32.5479C38.6049 32.1559 39.0614 31.5759 39.3007 30.8978H43.6089C43.1499 32.8281 42.0289 34.5364 40.4409 35.7258C38.9174 36.737 37.1171 37.2491 35.2895 37.191C33.9851 37.2081 32.6906 36.9629 31.4829 36.47C30.3903 36.0144 29.4105 35.3257 28.6118 34.452C27.8161 33.5365 27.2049 32.4759 26.8116 31.3285C26.3702 30.0459 26.1542 28.6966 26.1731 27.3404C26.165 26.0069 26.3883 24.6821 26.8331 23.4249C27.4306 21.6562 28.573 20.1223 30.0964 19.0433C31.6198 17.9642 33.4459 17.3955 35.3126 17.4188C36.6908 17.39 38.0536 17.7125 39.2726 18.356C40.3746 18.9602 41.3252 19.8065 42.0529 20.831C42.7974 21.9061 43.331 23.1127 43.6254 24.3868C43.9483 25.755 44.0634 27.1639 43.967 28.5663H31.1347C31.0307 29.884 31.4418 31.1905 32.2815 32.2113ZM37.9114 22.3622C37.5523 22.0031 37.1204 21.725 36.6448 21.5468C36.1692 21.3687 35.6609 21.2945 35.1542 21.3293C34.482 21.3037 33.8146 21.4526 33.217 21.7616C32.7433 22.0224 32.3252 22.3733 31.9861 22.7946C31.6856 23.1895 31.4618 23.6372 31.3261 24.1146C31.2039 24.5127 31.1275 24.9235 31.0984 25.3389H39.0466C38.9773 24.2559 38.5828 23.219 37.9147 22.3639L37.9114 22.3622Z" fill="#FDFDFD"/>
  <path d="M40.0333 12.5361H30.0737V15.0821H40.0333V12.5361Z" fill="#FDFDFD"/>
</svg>